<svg version="1.2" xmlns="http://www.w3.org/2000/svg" viewBox="0 0 830 203" width="830" height="203">
	<style>
		tspan { white-space:pre } 
		.s0 { fill: #ffffff } 
	</style>
	<path id="SUBER" class="s0" d="m3.74 172h84.11c26.2 0 48.06-20.54 48.06-47.28 0-72.79-115.76-25.63-115.76-76.36 0.04-7.48 3.05-14.64 8.37-19.9 5.33-5.26 12.52-8.19 20-8.13h86.74v-19.7h-86.74c-26.36 0-48.06 21.14-48.06 47.73 0 73.47 115.76 26.63 115.76 76.36 0 15.33-12.51 27.58-28.37 27.58h-84.11zm177.03-171.54v96.75c0.09 20 8.01 39.17 22.05 53.42 48.87 48.87 128.11 11.47 128.52-53.42v-96.75h-19.7v96.66c-0.46 73.53-110.64 73.59-111.17 0.06v-96.72zm312.64 86.18c16.33-12.48 22.89-33.98 16.3-53.45-6.59-19.47-24.86-32.57-45.41-32.57h-81.1v57.92h19.7v-38.22h61.4c10.12-0.06 19.5 5.31 24.58 14.07 5.08 8.76 5.08 19.57 0 28.33-5.08 8.75-14.46 14.12-24.58 14.07h-81.1v56.6h19.7v-36.91h61.4c10.12-0.05 19.5 5.32 24.58 14.07 5.08 8.76 5.08 19.57 0 28.33-5.08 8.76-14.46 14.13-24.58 14.07h-81.38v19.7h81.38c20.55 0 38.82-13.1 45.4-32.57 6.59-19.46 0.04-40.96-16.29-53.44zm142.42-9.85h-77.48v19.69h77.48zm-77.5 42.17v53.7h125.87v-19.7h-106.17v-34zm125.87-118.58h-125.87v52.92h19.7v-33.23h106.17zm118.39 51.66c-2.17-28.99-26.31-51.4-55.38-51.4h-73.85v172.03h19.7v-152.34h54.15c19.8 0 35.84 16.05 35.84 35.84 0 19.79-16.04 35.84-35.84 35.84h-36.85l104.87 111.05 14.32-13.52-74.08-78.44c28.74-4.33 49.28-30.08 47.12-59.06z"/>
	<path id="Shape 1" fill-rule="evenodd" class="s0" d="m1021 302v100h-100v-100z"/>
	<text id="" transform="translate(85,75)">
	</text>
	<text id="" transform="translate(894,150)">
	</text>
	<text id="" transform="translate(290,108.7)">
	</text>
</svg>